<?xml version="1.0" standalone="no"?>
<!DOCTYPE svg PUBLIC "-//W3C//DTD SVG 20010904//EN"
 "http://www.w3.org/TR/2001/REC-SVG-20010904/DTD/svg10.dtd">
<svg version="1.0" xmlns="http://www.w3.org/2000/svg"
 width="860.000000pt" height="860.000000pt" viewBox="0 0 860.000000 860.000000"
 preserveAspectRatio="xMidYMid meet">
<metadata>
Created by potrace 1.14, written by Peter Selinger 2001-2017
</metadata>
<g transform="translate(0.000000,860.000000) scale(0.100000,-0.100000)"
fill="#000000" stroke="none">
<path d="M1239 8005 c-3 -2 -27 -6 -54 -10 -56 -6 -159 -32 -183 -45 -10 -5
-32 -15 -49 -22 -18 -7 -33 -16 -33 -20 0 -5 -4 -8 -10 -8 -20 0 -109 -71
-159 -128 -63 -69 -133 -209 -160 -317 -20 -79 -21 -103 -22 -2970 -1 -1589
-2 -2966 -3 -3059 -1 -96 3 -202 10 -247 39 -246 200 -445 434 -537 140 -55
-84 -51 3285 -53 1711 0 3121 2 3134 5 296 71 488 241 568 505 l26 86 2 1048
c2 1123 4 1072 -48 1122 -25 24 -117 70 -162 81 -16 4 -37 9 -45 11 -112 26
-337 35 -470 19 -163 -21 -304 -83 -343 -151 -9 -14 -12 -242 -13 -825 -1
-443 -2 -808 -3 -811 -1 -3 -1136 -6 -2523 -6 -1388 0 -2578 -2 -2645 -4
l-123 -4 0 2620 c0 1441 0 2625 0 2630 0 7 560 10 1659 10 l1660 0 28 21 c27
20 78 108 90 156 30 122 40 224 38 388 -2 96 -6 189 -9 205 -4 17 -12 55 -18
85 -11 56 -56 162 -80 191 -33 40 11 39 -1916 39 -1023 0 -1861 -2 -1863 -5z"/>
<path d="M7169 6938 c-8 -4 -36 -15 -64 -25 -45 -16 -176 -143 -1418 -1385
-753 -753 -1370 -1368 -1372 -1368 -2 0 -263 259 -580 575 -366 366 -582 575
-594 575 -11 0 -23 5 -26 10 -3 6 -15 10 -26 10 -10 0 -19 4 -19 10 0 5 -35 8
-82 7 -141 -4 -153 -13 -467 -326 -313 -313 -326 -330 -326 -461 1 -80 6 -122
17 -130 3 -3 8 -12 10 -20 2 -8 8 -21 13 -29 23 -35 1881 -1891 1904 -1903 14
-7 28 -15 31 -18 12 -14 93 -30 148 -30 102 0 161 29 260 126 46 46 88 81 93
78 5 -3 9 1 9 9 0 15 137 157 151 157 5 0 9 4 9 10 0 11 140 150 152 150 4 0
8 5 8 11 0 14 25 39 39 39 6 0 11 4 11 10 0 5 21 28 46 52 26 24 54 51 63 62
9 10 45 46 80 80 34 33 75 74 90 90 14 16 50 52 80 80 29 28 61 59 70 69 44
50 145 147 152 147 5 0 9 5 9 11 0 14 25 39 39 39 6 0 11 4 11 10 0 5 21 28
46 52 26 24 54 51 63 61 43 50 145 147 152 147 5 0 9 5 9 11 0 14 25 39 39 39
6 0 11 4 11 10 0 5 21 28 46 52 26 24 54 51 63 62 9 10 45 46 80 80 34 33 75
74 90 90 14 16 50 52 80 80 29 28 61 59 70 69 44 50 145 147 152 147 5 0 9 5
9 11 0 14 25 39 39 39 6 0 11 4 11 10 0 5 21 28 46 52 26 24 54 51 63 62 21
24 112 115 142 142 13 12 55 54 92 93 37 39 72 69 78 66 5 -4 9 0 9 8 0 19
139 159 151 152 5 -4 9 0 9 8 0 15 137 157 151 157 5 0 9 4 9 10 0 11 140 150
152 150 4 0 8 5 8 11 0 14 25 39 39 39 6 0 11 4 11 10 0 5 21 28 46 52 26 24
54 51 63 61 43 50 145 147 152 147 5 0 9 7 9 15 0 8 8 15 17 15 9 0 14 3 11 6
-3 3 11 22 32 43 99 98 123 260 56 388 -9 18 -86 103 -171 190 -85 86 -155
160 -155 165 0 4 -5 8 -11 8 -6 0 -56 47 -112 104 -56 57 -118 112 -137 122
-19 11 -37 22 -40 25 -13 16 -177 30 -201 17z"/>
</g>
</svg>
